<svg width="39" height="39" viewBox="0 0 39 39" fill="none" xmlns="http://www.w3.org/2000/svg">
<path fill-rule="evenodd" clip-rule="evenodd" d="M28.8164 21.4158C28.2256 22.5008 27.0787 23.2183 25.7754 23.2183H12.8297L10.9182 26.7183H31.7705V30.2183H10.9182C8.27691 30.2183 6.60873 27.3658 7.87724 25.0208L10.2231 20.7508L3.96744 7.46826H0.492065V3.96826H6.17431L7.80773 7.46826H33.5255C34.8462 7.46826 35.6802 8.90326 35.0373 10.0583L28.8164 21.4158ZM30.5714 10.9685H9.4585L13.5768 19.7185H25.7754L30.5714 10.9685ZM10.9181 31.9683C9.00661 31.9683 7.46007 33.5433 7.46007 35.4683C7.46007 37.3933 9.00661 38.9683 10.9181 38.9683C12.8295 38.9683 14.3934 37.3933 14.3934 35.4683C14.3934 33.5433 12.8295 31.9683 10.9181 31.9683ZM24.837 35.4683C24.837 33.5433 26.3835 31.9683 28.295 31.9683C30.2064 31.9683 31.7703 33.5433 31.7703 35.4683C31.7703 37.3933 30.2064 38.9683 28.295 38.9683C26.3835 38.9683 24.837 37.3933 24.837 35.4683Z" fill="#009280"/>
<mask id="mask0" mask-type="alpha" maskUnits="userSpaceOnUse" x="6" y="8" width="26" height="25">
<path fill-rule="evenodd" clip-rule="evenodd" d="M26.6913 20.7653C26.2691 21.4989 25.4496 21.9841 24.5183 21.9841H15.2679L13.9021 24.3506H28.8021V26.7171H13.9021C12.0148 26.7171 10.8228 24.7884 11.7292 23.2028L13.4054 20.3157L8.93542 11.3348H6.45209V8.96826H10.5123L11.6795 11.3348H30.0562C30.9998 11.3348 31.5958 12.305 31.1364 13.086L26.6913 20.7653ZM27.9453 13.7013H12.8591L15.8018 19.6176H24.5183L27.9453 13.7013ZM13.9021 27.9003C12.5363 27.9003 11.4312 28.9653 11.4312 30.2668C11.4312 31.5684 12.5363 32.6333 13.9021 32.6333C15.2679 32.6333 16.3854 31.5684 16.3854 30.2668C16.3854 28.9653 15.2679 27.9003 13.9021 27.9003ZM23.8478 30.2668C23.8478 28.9653 24.9529 27.9003 26.3188 27.9003C27.6846 27.9003 28.8021 28.9653 28.8021 30.2668C28.8021 31.5684 27.6846 32.6333 26.3188 32.6333C24.9529 32.6333 23.8478 31.5684 23.8478 30.2668Z" fill="white"/>
</mask>
<g mask="url(#mask0)">
</g>
</svg>
