<svg width="40" height="40" viewBox="0 0 40 40" fill="none" xmlns="http://www.w3.org/2000/svg">
<path fill-rule="evenodd" clip-rule="evenodd" d="M16.25 8.33333C12.5946 8.33333 9.66671 11.2546 9.66671 14.8148C9.66671 16.5489 10.3564 18.124 11.4892 19.2913L22.9998 30.9599L34.3018 19.4986C34.3132 19.4871 34.3248 19.4757 34.3366 19.4644C35.5727 18.2822 36.3334 16.6356 36.3334 14.8148C36.3334 11.2547 33.4055 8.33333 29.75 8.33333C28.9565 8.33333 28.0274 8.77779 26.9937 9.69343C25.9861 10.5859 25.0838 11.7437 24.3571 12.763C24.0443 13.2017 23.5388 13.4621 23 13.4621C22.4613 13.4621 21.9558 13.2017 21.643 12.763C20.9162 11.7437 20.014 10.5859 19.0064 9.69343C17.9727 8.77779 17.0436 8.33333 16.25 8.33333ZM6.33337 14.8148C6.33337 9.37478 10.7928 5 16.25 5C18.2468 5 19.9461 6.07291 21.2166 7.19815C21.8707 7.77759 22.4692 8.42273 23 9.0578C23.5309 8.42273 24.1293 7.77759 24.7835 7.19815C26.0539 6.07291 27.7533 5 29.75 5C35.2073 5 39.6667 9.37478 39.6667 14.8148C39.6667 17.5798 38.5096 20.0766 36.6589 21.8557L24.1868 34.5036C23.8736 34.8211 23.4462 35 23.0002 35C22.5542 35 22.1268 34.8213 21.8135 34.5038L9.103 21.6189C7.39156 19.8583 6.33337 17.4587 6.33337 14.8148Z" fill="#009280"/>
</svg>
