<svg width="35" height="35" viewBox="0 0 35 35" fill="none" xmlns="http://www.w3.org/2000/svg">
<path fill-rule="evenodd" clip-rule="evenodd" d="M4.375 8.75008C4.375 7.94467 5.02792 7.29175 5.83333 7.29175H29.1667C29.9721 7.29175 30.625 7.94467 30.625 8.75008C30.625 9.5555 29.9721 10.2084 29.1667 10.2084H5.83333C5.02792 10.2084 4.375 9.5555 4.375 8.75008Z" fill="#009280"/>
<path fill-rule="evenodd" clip-rule="evenodd" d="M4.375 17.5001C4.375 16.6947 5.02792 16.0417 5.83333 16.0417H29.1667C29.9721 16.0417 30.625 16.6947 30.625 17.5001C30.625 18.3055 29.9721 18.9584 29.1667 18.9584H5.83333C5.02792 18.9584 4.375 18.3055 4.375 17.5001Z" fill="#009280"/>
<path fill-rule="evenodd" clip-rule="evenodd" d="M4.375 26.2501C4.375 25.4447 5.02792 24.7917 5.83333 24.7917H29.1667C29.9721 24.7917 30.625 25.4447 30.625 26.2501C30.625 27.0555 29.9721 27.7084 29.1667 27.7084H5.83333C5.02792 27.7084 4.375 27.0555 4.375 26.2501Z" fill="#009280"/>
</svg>
