<?xml version="1.0" standalone="no"?>
<!DOCTYPE svg PUBLIC "-//W3C//DTD SVG 20010904//EN"
 "http://www.w3.org/TR/2001/REC-SVG-20010904/DTD/svg10.dtd">
<svg version="1.0" xmlns="http://www.w3.org/2000/svg"
 width="136.000000pt" height="119.000000pt" viewBox="0 0 136.000000 119.000000"
 preserveAspectRatio="xMidYMid meet">
<metadata>
Created by potrace 1.16, written by Peter Selinger 2001-2019
</metadata>
<g transform="translate(0.000000,119.000000) scale(0.100000,-0.100000)"
fill="#000000" stroke="none">
<path d="M0 595 l0 -595 680 0 680 0 0 595 0 595 -680 0 -680 0 0 -595z m575
556 c3 -6 -6 -101 -20 -213 -35 -284 -34 -278 -54 -278 -16 0 -15 19 15 248
17 136 32 248 33 250 3 6 20 1 26 -7z m355 -12 c0 -26 -48 -424 -56 -456 -5
-24 -34 -32 -34 -10 0 17 50 437 56 465 6 28 34 29 34 1z m347 6 c-4 -8 -33
-57 -66 -109 l-60 -94 39 -138 c22 -77 40 -140 40 -141 0 -2 -8 -3 -18 -3 -13
0 -25 27 -55 133 -20 74 -37 140 -37 147 0 22 133 220 148 220 8 0 12 -6 9
-15z m-977 -662 c0 -5 -11 -98 -25 -208 -14 -110 -25 -203 -25 -207 0 -5 -9
-8 -20 -8 -16 0 -19 5 -15 23 2 12 14 103 25 202 12 99 23 186 25 193 5 13 35
17 35 5z m836 -9 c-9 -8 -16 -29 -16 -46 0 -25 12 -42 61 -87 91 -84 105 -121
73 -200 -16 -40 -42 -63 -92 -82 -25 -9 -24 -7 10 23 42 37 58 72 58 126 0 44
-18 72 -88 136 -29 27 -55 60 -58 73 -8 30 20 73 47 73 19 0 19 -1 5 -16z"/>
</g>
</svg>
