<svg width="21" height="21" viewBox="0 0 21 21" fill="none" xmlns="http://www.w3.org/2000/svg">
<path d="M2 0.530865L1.96692 0.0319595C1.76635 0.0452576 1.59324 0.177374 1.5275 0.367331C1.46176 0.557287 1.51616 0.768145 1.6656 0.902582L2 0.530865ZM6.22701 1.45723C5.95086 1.45723 5.72701 1.68109 5.72701 1.95723C5.72701 2.23338 5.95086 2.45723 6.22701 2.45723V1.45723ZM7.5 10.5H8V10H7.5V10.5ZM2 19.0736L1.82468 18.6054C1.63834 18.6751 1.5111 18.8488 1.50069 19.0475C1.49027 19.2461 1.59865 19.4321 1.77667 19.521L2 19.0736ZM15 13.5L15.3533 13.1462C15.2307 13.0238 15.0536 12.9736 14.885 13.0134C14.7165 13.0532 14.5806 13.1774 14.5257 13.3417L15 13.5ZM17.7143 20.5H17.2143C17.2143 20.7203 17.3584 20.9146 17.5692 20.9785C17.78 21.0424 18.0078 20.9608 18.1301 20.7776L17.7143 20.5ZM3.39054 3.04849L3.72589 3.41936L3.92513 3.23921L3.88491 2.97362L3.39054 3.04849ZM2.03308 1.02977C3.15499 0.955387 3.86395 1.02167 4.41243 1.21624C4.95047 1.4071 5.38419 1.7391 5.9247 2.30317L6.64673 1.6113C6.0578 0.996704 5.4957 0.539465 4.74676 0.273785C4.00827 0.0118122 3.13909 -0.0457535 1.96692 0.0319595L2.03308 1.02977ZM7.26785 1.45723H6.28571V2.45723H7.26785V1.45723ZM6.28571 1.45723H6.22701V2.45723H6.28571V1.45723ZM6.5 11H7.5V10H6.5V11ZM1.5 6.17772C1.5 8.87496 3.85065 11 6.5 11V10C4.35063 10 2.5 8.27178 2.5 6.17772H1.5ZM7.26785 2.45723C13.5599 2.45723 19 7.73763 19 14H20C20 7.16584 14.0925 1.45723 7.26785 1.45723V2.45723ZM2.17532 19.5419C4.2183 18.777 8 15.8984 8 10.5H7C7 15.3715 3.59122 17.9439 1.82468 18.6054L2.17532 19.5419ZM1.77667 19.521C4.72816 20.9945 7.59715 21.2424 10.0321 20.2249C12.467 19.2074 14.3702 16.9653 15.4743 13.6583L14.5257 13.3417C13.4869 16.4533 11.7473 18.4244 9.64651 19.3022C7.54571 20.1801 4.98613 20.0055 2.22333 18.6263L1.77667 19.521ZM14.6467 13.8538C15.5278 14.7335 17.2143 17.2384 17.2143 20.5H18.2143C18.2143 16.9151 16.377 14.1683 15.3533 13.1462L14.6467 13.8538ZM3.0552 2.67762C2.10084 3.54056 1.5 4.78934 1.5 6.17772H2.5C2.5 5.084 2.97214 4.1009 3.72589 3.41936L3.0552 2.67762ZM3.88491 2.97362C3.72808 1.93812 3.18292 0.922483 2.3344 0.159147L1.6656 0.902582C2.34872 1.51713 2.77537 2.32568 2.89618 3.12336L3.88491 2.97362ZM18.1301 20.7776C19.631 18.5298 20 16.3669 20 14H19C19 16.2429 18.6548 18.1911 17.2985 20.2224L18.1301 20.7776Z" fill="#12F3D8"/>
</svg>
