<svg width="21" height="21" viewBox="0 0 21 21" fill="none" xmlns="http://www.w3.org/2000/svg">
<path d="M16.5006 18.5003L16.7242 18.0531L16.4475 17.9148L16.2003 18.1005L16.5006 18.5003ZM18.5003 16.5006L18.1005 16.2003L17.9148 16.4475L18.0531 16.7242L18.5003 16.5006ZM20.5 20.5L20.2764 20.9472C20.4689 21.0435 20.7014 21.0057 20.8536 20.8536C21.0057 20.7014 21.0435 20.4689 20.9472 20.2764L20.5 20.5ZM6.50001 14.5L6.10001 14.8C6.19444 14.9259 6.34263 15 6.50001 15V14.5ZM14.5 6.5H15C15 6.35251 14.9349 6.21255 14.8221 6.11754L14.5 6.5ZM6.03392 13.8785L5.63392 14.1785L5.63392 14.1785L6.03392 13.8785ZM6.70988 12.2863L6.7719 12.7824L6.7719 12.7824L6.70988 12.2863ZM8.5147 12.0607L8.45269 11.5645L8.45269 11.5645L8.5147 12.0607ZM9.34585 12.3458L8.99229 12.6994L8.99229 12.6994L9.34585 12.3458ZM13.9736 6.0567L13.6515 6.43915L13.6515 6.43915L13.9736 6.0567ZM12.34 6.67681L11.8453 6.60441L11.8453 6.60441L12.34 6.67681ZM12.0727 8.50316L11.578 8.43076L12.0727 8.50316ZM12.3551 9.35506L12.7086 9.00151L12.7086 9.00151L12.3551 9.35506ZM10.5 21C12.8635 21 15.0459 20.2185 16.8009 18.9L16.2003 18.1005C14.6125 19.2933 12.6395 20 10.5 20V21ZM0 10.5C0 16.299 4.70101 21 10.5 21V20C5.2533 20 1 15.7467 1 10.5H0ZM10.5 -1.14441e-05C4.70101 -1.14441e-05 0 4.701 0 10.5H1C1 5.25328 5.2533 0.999989 10.5 0.999989V-1.14441e-05ZM21 10.5C21 4.701 16.299 -1.14441e-05 10.5 -1.14441e-05V0.999989C15.7467 0.999989 20 5.25328 20 10.5H21ZM18.9001 16.8009C20.2185 15.0459 21 12.8635 21 10.5H20C20 12.6395 19.2934 14.6125 18.1005 16.2003L18.9001 16.8009ZM20.9472 20.2764L18.9475 16.277L18.0531 16.7242L20.0528 20.7236L20.9472 20.2764ZM16.277 18.9475L20.2764 20.9472L20.7236 20.0528L16.7242 18.0531L16.277 18.9475ZM6.50001 15H7.50001V14H6.50001V15ZM15 7.5V6.5H14V7.5H15ZM7.50001 15C11.6421 15 15 11.6421 15 7.5H14C14 11.0899 11.0899 14 7.50001 14V15ZM6.90001 14.2L6.43392 13.5785L5.63392 14.1785L6.10001 14.8L6.90001 14.2ZM6.7719 12.7824L8.57672 12.5568L8.45269 11.5645L6.64787 11.7901L6.7719 12.7824ZM8.99229 12.6994L10.1465 13.8536L10.8536 13.1464L9.6994 11.9923L8.99229 12.6994ZM8.57672 12.5568C8.72982 12.5377 8.88319 12.5903 8.99229 12.6994L9.6994 11.9923C9.37209 11.665 8.912 11.5071 8.45269 11.5645L8.57672 12.5568ZM6.43392 13.5785C6.20357 13.2714 6.39095 12.83 6.7719 12.7824L6.64787 11.7901C5.50503 11.933 4.94288 13.2572 5.63392 14.1785L6.43392 13.5785ZM14.8221 6.11754L14.2957 5.67424L13.6515 6.43915L14.1779 6.88246L14.8221 6.11754ZM11.8453 6.60441L11.578 8.43076L12.5675 8.57556L12.8347 6.74921L11.8453 6.60441ZM12.0015 9.70862L13.1465 10.8536L13.8536 10.1464L12.7086 9.00151L12.0015 9.70862ZM11.578 8.43076C11.5094 8.8997 11.6664 9.37349 12.0015 9.70862L12.7086 9.00151C12.5969 8.8898 12.5446 8.73187 12.5675 8.57556L11.578 8.43076ZM14.2957 5.67424C13.3965 4.91709 12.0155 5.44135 11.8453 6.60441L12.8347 6.74921C12.8915 6.36152 13.3518 6.18677 13.6515 6.43915L14.2957 5.67424Z" fill="#12F3D8"/>
</svg>
